<?xml version="1.0" encoding="UTF-8"?>
<svg id="Livello_2" data-name="Livello 2" xmlns="http://www.w3.org/2000/svg" viewBox="0 0 778.14 122.15">
  <defs>
    <style>
      .cls-1 {
        fill: #1ab8ec;
      }

      .cls-2 {
        stroke: #ffed00;
      }

      .cls-2, .cls-3 {
        fill: none;
        stroke-miterlimit: 10;
        stroke-width: .77px;
      }

      .cls-3 {
        stroke: #1ab8ec;
      }
    </style>
  </defs>
  <g id="Livello_1-2" data-name="Livello 1">
    <g>
      <g>
        <path class="cls-3" d="M176.26,109.65h-10.78c-6.72,0-12.16,5.45-12.16,12.16"/>
        <path class="cls-3" d="M193.68,121.75c-2.63-7.07-9.44-12.1-17.42-12.1"/>
        <path class="cls-2" d="M162.77,109.96c-11.63-7.87-25.66-12.46-40.76-12.46"/>
        <g>
          <polyline class="cls-3" points="231.71 28.83 237.88 53.65 255.74 53.65 261.92 28.83"/>
          <line class="cls-3" x1="240.37" y1="53.65" x2="240.37" y2="73.22"/>
          <line class="cls-3" x1="253.24" y1="53.65" x2="253.24" y2="73.22"/>
          <line class="cls-3" x1="244.47" y1="28.04" x2="244.47" y2="53.12"/>
          <line class="cls-3" x1="249.14" y1="53.12" x2="249.14" y2="28.04"/>
          <path class="cls-3" d="M231.25,88.14c-2.05,0-3.7-1.66-3.7-3.7s1.66-3.7,3.7-3.7"/>
          <path class="cls-3" d="M283.5,84.44c0,2.05-1.66,3.7-3.7,3.7s-3.7-1.66-3.7-3.7"/>
          <path class="cls-3" d="M243.73,84.44c0-2.05,1.66-3.7,3.7-3.7s3.7,1.66,3.7,3.7"/>
          <path class="cls-3" d="M263.61,80.73c2.05,0,3.7,1.66,3.7,3.7s-1.66,3.7-3.7,3.7"/>
          <line class="cls-3" x1="267.66" y1="46.55" x2="267.66" y2="51.6"/>
          <line class="cls-3" x1="273.74" y1="46.55" x2="273.74" y2="51.6"/>
          <line class="cls-3" x1="285.91" y1="46.55" x2="285.91" y2="51.6"/>
          <line class="cls-3" x1="279.83" y1="46.55" x2="279.83" y2="51.6"/>
          <polyline class="cls-3" points="291.94 36.8 282.22 36.8 282.22 .39 302.83 .39"/>
          <polyline class="cls-3" points="279.8 61.08 279.8 61.08 253.24 61.08"/>
          <polyline class="cls-3" points="231.33 73.3 231.33 73.3 231.33 73.3 279.8 73.3 279.8 73.3 279.8 73.3"/>
          <polyline class="cls-3" points="240.37 61.08 231.33 61.08 231.33 61.08"/>
          <path class="cls-3" d="M233.69,36.8h-9.99c-2.54,0-4.59,2.06-4.59,4.59v51.5c0,2.54,2.06,4.59,4.59,4.59h63.64c2.54,0,4.59-2.06,4.59-4.59v-51.5c0-2.54-2.06-4.59-4.59-4.59h-27.41"/>
          <path class="cls-3" d="M282.22,24.61h-4.43l-12.97,3.43h-21.36c0-4.8,3.88-8.68,8.68-8.68h10.01l8.87-5.56-5.53,3.46-5.15-4.29h-13.44l-12.2,5.43-9.82,11.16c-1.35,1.35-3.4,1.26-4.75-.09-1.35-1.35-1.35-3.54,0-4.89l-.02.02,8.69-12.11L246.13.39h20.12l12.3,6.67h3.67"/>
        </g>
        <path class="cls-3" d="M231.25,80.73c2.05,0,3.7,1.66,3.7,3.7s-1.66,3.7-3.7,3.7"/>
        <path class="cls-3" d="M276.09,84.44c0-2.05,1.66-3.7,3.7-3.7s3.7,1.66,3.7,3.7"/>
        <path class="cls-3" d="M251.13,84.44c0,2.05-1.66,3.7-3.7,3.7s-3.7-1.66-3.7-3.7"/>
        <path class="cls-3" d="M263.61,88.14c-2.05,0-3.7-1.66-3.7-3.7s1.66-3.7,3.7-3.7"/>
        <path class="cls-3" d="M255.99,12.97c2.21,1.63,3.96,3.83,5.05,6.39"/>
        <path class="cls-3" d="M231.7,28.83c-.25-1.09-.37-2.23-.37-3.4,0-1.28.16-2.52.45-3.71"/>
        <path class="cls-3" d="M279.8,73.3c3.37,0,6.11-2.74,6.11-6.11h0c0-3.37-2.74-6.11-6.11-6.11"/>
        <path class="cls-3" d="M231.33,61.08c-3.37,0-6.11,2.74-6.11,6.11h0c0,3.37,2.74,6.11,6.11,6.11"/>
        <path class="cls-3" d="M261.92,28.83c.06-.26.11-.53.16-.79"/>
        <g>
          <polyline class="cls-3" points="115.95 67.19 97.74 67.19 97.74 73.22 122.02 78.72 122.02 97.49"/>
          <line class="cls-3" x1="115.95" y1="67.19" x2="115.95" y2="77.34"/>
          <line class="cls-3" x1="103.81" y1="55.05" x2="61.33" y2="48.94"/>
          <line class="cls-3" x1="49.42" y1="49.1" x2="11.48" y2="11.2"/>
          <line class="cls-3" x1="61.33" y1="48.94" x2=".66" y2="48.93"/>
          <line class="cls-3" x1="30.96" y1="36.84" x2="37.16" y2="36.84"/>
          <path class="cls-3" d="M49.19,121.77c13.41,0,24.28-10.87,24.28-24.28s-10.87-24.28-24.28-24.28"/>
          <path class="cls-3" d="M49.19,107.09c5.3,0,9.59-4.3,9.59-9.59"/>
          <path class="cls-3" d="M39.59,97.49c0,5.3,4.3,9.59,9.59,9.59"/>
          <path class="cls-3" d="M79.95,97.49h42.07v12.14l-39.53.02c-2.43,0-4.17-2.3-3.55-4.64.76-2.89,1.11-5.95.98-9.11-.63-15.87-13.45-28.82-29.32-29.59-10.4-.5-19.74,4.14-25.69,11.6"/>
          <path class="cls-3" d="M30.96,48.94c-3.34,0-6.05-2.71-6.05-6.05,0-3.34,2.71-6.05,6.05-6.05"/>
          <path class="cls-3" d="M49.19,73.22c-13.41,0-24.28,10.87-24.28,24.28s10.87,24.28,24.28,24.28"/>
          <path class="cls-3" d="M49.19,87.9c-5.3,0-9.59,4.3-9.59,9.59"/>
          <path class="cls-3" d="M115.95,67.19c0-6.7-5.16-11.19-12.11-12.11"/>
          <path class="cls-3" d="M11.48,11.2c-2.92-2.92-7.12-4.15-11.48-4.15"/>
          <path class="cls-3" d="M17.53,5.15C14.19,1.8,9.37.39,4.36.39"/>
          <line class="cls-3" x1="18.04" y1="97.48" x2=".62" y2="97.48"/>
          <path class="cls-3" d="M58.78,97.49c0-5.3-4.3-9.59-9.59-9.59"/>
          <path class="cls-3" d="M49.08,66.27c-17.14,0-31.04,14.07-31.04,31.21"/>
          <path class="cls-3" d="M61.33,48.94c0,6.75-2.24,12.97-6.02,17.96"/>
          <line class="cls-3" x1="24.49" y1="12.1" x2="17.53" y2="5.15"/>
          <line class="cls-3" x1="61.33" y1="48.94" x2="24.49" y2="12.1"/>
        </g>
        <path class="cls-3" d="M162.76,109.96c-11.63-7.87-25.66-12.46-40.76-12.46"/>
        <g>
          <line class="cls-3" x1="291.94" y1="97.49" x2="239.83" y2="97.49"/>
          <line class="cls-3" x1="291.94" y1="113.61" x2="274.32" y2="113.61"/>
          <line class="cls-3" x1="282.63" y1="97.49" x2="282.63" y2="113.61"/>
          <path class="cls-3" d="M220.56,101.68l-17.12-2.91c-4.44-.75-8.31,3.05-7.64,7.5l2.33,15.4"/>
          <path class="cls-3" d="M226.55,105.55c4.1-1.43,8.5-2.21,13.09-2.21"/>
          <path class="cls-3" d="M243.38,103.52c2.03.19,4.01.53,5.93,1.01"/>
          <line class="cls-3" x1="291.94" y1="97.49" x2="291.94" y2="113.61"/>
          <path class="cls-3" d="M199.58,121.68c7.65-14.39,22.8-24.18,40.26-24.18"/>
          <path class="cls-3" d="M239.64,97.49c17.4,0,32.52,9.8,40.13,24.18"/>
          <path class="cls-3" d="M206.19,121.64c4.76-7.41,11.91-13.14,20.36-16.09"/>
          <path class="cls-3" d="M219.07,121.78c5.24-4.99,12.34-8.06,20.15-8.06s14.81,3.02,20.04,7.96"/>
        </g>
        <line class="cls-3" x1="4.36" y1=".39" x2=".45" y2=".39"/>
        <path class="cls-3" d="M160.18,19.83c-4.14,8.01-11.84,14.06-21.41,15.73"/>
        <line class="cls-3" x1="162.93" y1="14.48" x2="160.17" y2="19.83"/>
        <line class="cls-3" x1="169.62" y1="16.66" x2="167.13" y2="21.49"/>
        <path class="cls-3" d="M169.62,16.66c2.06-3.87,5.82-6.78,10.47-7.6"/>
        <line class="cls-3" x1="177.24" y1="31.26" x2="207.08" y2="24.16"/>
        <path class="cls-3" d="M175.02,21.15l-1.8,3.49h0c-.16.32-.34.63-.52.94l-.04.07"/>
        <line class="cls-3" x1="202.93" y1="12.1" x2="182.6" y2="15.65"/>
        <path class="cls-3" d="M207.08,24.16c-1.14-4.08-2.52-8.11-4.15-12.06"/>
        <path class="cls-3" d="M122,97.49c.11-28.32,2.91-56.63,8.42-84.52h33.42"/>
        <path class="cls-3" d="M122,97.49c.11-28.79,5.89-57.57,17.36-84.52"/>
        <line class="cls-3" x1="204.3" y1="4.84" x2="180.09" y2="9.06"/>
        <polyline class="cls-3" points="205.76 30.36 132.42 52.29 150.6 39.95"/>
        <path class="cls-3" d="M203.52,97.72c3.93-20.82,5.98-42.3,5.98-64.27"/>
        <line class="cls-3" x1="138.77" y1="35.56" x2="126.21" y2="37.86"/>
        <polyline class="cls-3" points="133.64 1.33 133.64 9.06 132.26 12.97"/>
        <path class="cls-3" d="M145.4.39c-3.93-.04-7.87.27-11.76.94"/>
        <path class="cls-3" d="M133.64,9.06c1.29-.22,2.59-.41,3.89-.55"/>
        <path class="cls-3" d="M143.48,4.3c1.89-.04,3.77.01,5.66.14"/>
        <line class="cls-3" x1="206.73" y1=".43" x2="174.55" y2="6.05"/>
        <path class="cls-3" d="M219.11,48.93c-.06-4.91-.45-9.82-1.19-14.69"/>
        <path class="cls-3" d="M206.36,30.3c-.21,0-.41.02-.6.06"/>
        <path class="cls-3" d="M203.64,51.6h-28.78c-.75,0-1.36-.61-1.36-1.36v-4.79c0-.75.61-1.36,1.36-1.36h14.39"/>
        <path class="cls-3" d="M189.25,44.08h14.39c.75,0,1.36.61,1.36,1.36v4.79c0,.75-.61,1.36-1.36,1.36"/>
        <path class="cls-3" d="M150.23,103.17c11.57-8.33,24.41-17.88,31.32-23.99"/>
        <path class="cls-3" d="M181.28,67.97c-3.64-3.58-20.53-12.23-29.14-16.68"/>
        <line class="cls-3" x1="188.07" y1="60.75" x2="158.45" y2="48.94"/>
        <path class="cls-3" d="M152.14,104c12.85-8.15,27.2-17.56,34.82-23.56"/>
        <path class="cls-3" d="M135.19,70.52c-2.11,0-3.62-2.05-2.99-4.06h0c.41-1.31,1.62-2.2,2.99-2.2"/>
        <line class="cls-3" x1="150.53" y1="70.52" x2="135.19" y2="70.52"/>
        <line class="cls-3" x1="135.19" y1="64.25" x2="150.53" y2="64.25"/>
        <line class="cls-3" x1="133.19" y1="72.63" x2="168.76" y2="72.63"/>
        <line class="cls-3" x1="168.76" y1="78.9" x2="133.19" y2="78.9"/>
        <path class="cls-3" d="M168.76,72.63c2.19,0,3.71,2.2,2.93,4.25h0c-.46,1.21-1.63,2.02-2.93,2.02"/>
        <g>
          <path class="cls-3" d="M162.93,14.48c2.28-4.29,6.45-7.52,11.62-8.43"/>
          <path class="cls-3" d="M172.67,25.65c-.84,1.48-.62,3.39.64,4.66,1.06,1.06,2.59,1.38,3.93.96"/>
          <path class="cls-3" d="M182.6,15.65c-3.37.59-6.09,2.7-7.58,5.5h0"/>
          <path class="cls-3" d="M217.56,32.01c-.7-5.04-5.44-8.55-10.48-7.85"/>
          <path class="cls-3" d="M202.93,12.1c0-4.36,1.4-8.43,3.8-11.68"/>
          <path class="cls-3" d="M167.14,21.49c-3.82,7.41-9.5,13.8-16.53,18.46"/>
          <path class="cls-3" d="M157.19,12.97l-1.38-3.91s0-7.73,0-7.73c-3.44-.59-6.92-.91-10.41-.94"/>
          <path class="cls-3" d="M137.53,8.51c1.3-.14,2.61-.25,3.91-.31"/>
          <path class="cls-3" d="M133.64,5.24c3.26-.56,6.55-.87,9.84-.94"/>
          <path class="cls-3" d="M152.38,8.57c1.15.14,2.29.3,3.43.5"/>
          <path class="cls-3" d="M217.92,34.25c-1.77-11.66-5.48-23.09-11.15-33.75l-.04-.07"/>
          <path class="cls-3" d="M209.5,33.44c0-1.73-1.41-3.14-3.14-3.14"/>
          <path class="cls-3" d="M181.28,67.97c2.74,2.11,3.63,5.95,1.95,9.11-.44.82-1.01,1.53-1.68,2.1"/>
          <path class="cls-3" d="M186.96,80.44c8.14-6.42,10.08-16.24,1.11-19.69"/>
          <path class="cls-3" d="M150.53,64.25c2.11,0,3.62,2.05,2.99,4.06h0c-.41,1.31-1.62,2.2-2.99,2.2"/>
          <path class="cls-3" d="M133.19,78.9c-2.11,0-3.61-2.04-2.99-4.05h0c.4-1.31,1.62-2.21,2.99-2.21"/>
          <path class="cls-3" d="M131.47,87.28c-2.19,0-3.71-2.2-2.93-4.25h0c.46-1.21,1.63-2.02,2.93-2.02"/>
        </g>
        <line class="cls-3" x1="160.75" y1="87.28" x2="131.47" y2="87.28"/>
        <path class="cls-3" d="M160.75,81.01c2.19,0,3.71,2.2,2.93,4.25h0c-.46,1.21-1.63,2.02-2.93,2.02"/>
        <line class="cls-3" x1="131.47" y1="81.01" x2="160.75" y2="81.01"/>
        <line class="cls-3" x1="87.75" y1="46.59" x2="87.75" y2="52.66"/>
        <line class="cls-3" x1="79.72" y1="46.59" x2="79.72" y2="51.6"/>
        <line class="cls-3" x1="75.71" y1="46.59" x2="75.71" y2="50.99"/>
        <line class="cls-3" x1="83.73" y1="46.59" x2="83.73" y2="52.16"/>
        <line class="cls-3" x1="95.76" y1="46.59" x2="95.76" y2="53.89"/>
        <line class="cls-3" x1="91.75" y1="46.59" x2="91.75" y2="53.33"/>
        <line class="cls-3" x1="99.77" y1="46.59" x2="99.77" y2="54.47"/>
        <line class="cls-3" x1="75.71" y1="48.53" x2="79.72" y2="48.53"/>
        <line class="cls-3" x1="83.73" y1="50.11" x2="87.75" y2="50.11"/>
        <line class="cls-3" x1="87.75" y1="48.53" x2="91.75" y2="48.53"/>
        <line class="cls-3" x1="99.77" y1="52.79" x2="103.78" y2="52.79"/>
        <line class="cls-3" x1="119.18" y1="30.05" x2="111.15" y2="32.21"/>
        <line class="cls-3" x1="87.74" y1="5.93" x2="87.74" y2="15.12"/>
        <line class="cls-3" x1="96.16" y1="7.03" x2="93.79" y2="15.88"/>
        <line class="cls-3" x1="110.76" y1="15.46" x2="104.5" y2="21.72"/>
        <line class="cls-3" x1="115.93" y1="22.2" x2="108.48" y2="26.51"/>
        <line class="cls-3" x1="63.19" y1="38.48" x2="55.08" y2="38.48"/>
        <line class="cls-3" x1="120.4" y1="38.48" x2="112.29" y2="38.48"/>
        <line class="cls-3" x1="104.02" y1="10.29" x2="99.5" y2="18.11"/>
        <line class="cls-3" x1="56.31" y1="30.05" x2="64.27" y2="32.19"/>
        <line class="cls-3" x1="79.33" y1="7.03" x2="81.7" y2="15.87"/>
        <line class="cls-3" x1="64.73" y1="15.46" x2="70.99" y2="21.71"/>
        <line class="cls-3" x1="59.56" y1="22.2" x2="67" y2="26.5"/>
        <line class="cls-3" x1="71.48" y1="10.29" x2="75.99" y2="18.11"/>
        <path class="cls-3" d="M123.02,23.29c1.85,4.14,3,8.66,3.29,13.42"/>
        <path class="cls-3" d="M66.83,6.57c6.03-3.89,13.21-6.14,20.91-6.14,15.72,0,29.25,9.39,35.28,22.86"/>
        <path class="cls-3" d="M53.41,21.3c3.11-6,7.76-11.09,13.41-14.73"/>
        <path class="cls-3" d="M49.17,36.7c.33-5.53,1.83-10.74,4.25-15.4"/>
        <path class="cls-3" d="M124.67,50.49c-1.76,5.71-4.82,10.86-8.82,15.1"/>
        <path class="cls-3" d="M97.74,46.59h3.81c1.23,0,2.23,1,2.23,2.23v5.57c0,.24-.04.47-.11.69"/>
        <line class="cls-3" x1="77.71" y1="46.59" x2="97.74" y2="46.59"/>
        <path class="cls-3" d="M71.7,48.82c0-1.23,1-2.23,2.23-2.23h3.79"/>
        <line class="cls-3" x1="71.7" y1="50.43" x2="71.7" y2="48.82"/>
        <line class="cls-3" x1="74.56" y1="36.56" x2="80.16" y2="36.56"/>
        <path class="cls-3" d="M65.77,46h2.14c1.14,0,2.12-.8,2.35-1.91l1.01-4.84c.32-1.56,1.7-2.68,3.3-2.68"/>
        <line class="cls-3" x1="58.61" y1="46" x2="65.77" y2="46"/>
        <path class="cls-3" d="M88.21,5.93c-18.25-.26-33.13,14.46-33.13,32.66,0,1.43.09,2.83.27,4.21"/>
        <path class="cls-3" d="M107.93,12.97c-5.46-4.32-12.31-6.94-19.72-7.04"/>
        <path class="cls-3" d="M104.21,39.24l1.01,4.84c.23,1.11,1.21,1.91,2.35,1.91,2.62,0,7.25,0,9.93,0,1.25,0,2.29-.92,2.49-2.15.33-2.06.48-4.19.4-6.36-.32-9.91-5.14-18.74-12.45-24.52"/>
        <path class="cls-3" d="M100.91,36.56c1.6,0,2.97,1.12,3.3,2.68"/>
        <line class="cls-3" x1="90.89" y1="36.56" x2="100.91" y2="36.56"/>
        <path class="cls-3" d="M63.53,18.38l26.16,16.96h-.01c.11.06.21.13.31.21"/>
        <path class="cls-3" d="M62.12,20.21c-.5-.39-.6-1.11-.21-1.61s1.11-.6,1.61-.21"/>
        <line class="cls-3" x1="85.11" y1="41.05" x2="62.12" y2="20.21"/>
        <path class="cls-3" d="M89.98,35.55c1.61,1.24,1.91,3.55.67,5.17s-3.55,1.91-5.17.67c-.14-.1-.26-.22-.38-.34h0"/>
        <g>
          <g>
            <path class="cls-3" d="M369.17,112.82l8.74-.03c1.01,1.97,3.06,3.33,5.42,3.32"/>
            <path class="cls-3" d="M383.29,103.97c-2.38,0-4.43,1.39-5.42,3.38h-5.51"/>
            <polyline class="cls-3" points="303.44 112.55 309.11 112.53 309.07 107.13 303.41 107.12"/>
            <path class="cls-3" d="M297.99,103.8c-3.35.01-6.06,2.74-6.05,6.09s2.74,6.06,6.09,6.05"/>
            <polyline class="cls-3" points="321.31 106.86 314.98 106.88 315.01 113.54 323.85 113.51"/>
            <line class="cls-3" x1="354.33" y1="102.24" x2="361.71" y2="121.64"/>
            <line class="cls-3" x1="350.3" y1="106.86" x2="355.93" y2="121.66"/>
            <line class="cls-3" x1="345.38" y1="109.14" x2="350.16" y2="121.68"/>
            <line class="cls-3" x1="339.74" y1="109.48" x2="344.38" y2="121.66"/>
            <line class="cls-3" x1="332.86" y1="106.61" x2="338.6" y2="121.68"/>
            <line class="cls-3" x1="323.97" y1="98.63" x2="332.73" y2="121.66"/>
            <line class="cls-3" x1="318.19" y1="98.65" x2="326.96" y2="121.68"/>
            <polygon class="cls-3" points="309.12 117.65 312.55 117.64 315.02 117.63 314.97 102.75 309.07 102.77 309.12 117.65"/>
          </g>
          <path class="cls-3" d="M383.33,116.11c3.35-.01,6.06-2.74,6.05-6.09s-2.74-6.06-6.09-6.05"/>
          <path class="cls-3" d="M303.41,107.12c-1.01-1.97-3.06-3.33-5.42-3.32"/>
          <path class="cls-3" d="M298.02,115.94c2.38,0,4.43-1.39,5.42-3.38"/>
        </g>
        <path class="cls-3" d="M302.83.39h75.28c6.02,0,10.9,4.88,10.9,10.9v53.93"/>
        <line class="cls-3" x1="291.94" y1="65.34" x2="291.94" y2="11.28"/>
        <line class="cls-3" x1="291.94" y1="65.34" x2="341.7" y2="65.34"/>
        <line class="cls-3" x1="291.94" y1="97.46" x2="327.2" y2="97.46"/>
        <line class="cls-3" x1="323.19" y1="8.48" x2="323.19" y2="57.02"/>
        <line class="cls-3" x1="326.89" y1="77.27" x2="334.9" y2="77.27"/>
        <line class="cls-3" x1="323.19" y1="89.37" x2="326.89" y2="77.27"/>
        <line class="cls-3" x1="323.23" y1="41.44" x2="323.23" y2="52.99"/>
        <line class="cls-3" x1="323.19" y1="20.37" x2="380.92" y2="20.37"/>
        <polyline class="cls-3" points="380.92 20.37 374.17 17.58 365.49 23.74 356 16.34 350.48 31.49 345.83 8.48 337.42 25.12 329.94 16.34 323.19 20.37"/>
        <line class="cls-3" x1="310.96" y1="16.74" x2="316.61" y2="16.74"/>
        <line class="cls-3" x1="306.91" y1="16.74" x2="308.37" y2="16.74"/>
        <line class="cls-3" x1="314.65" y1="20.37" x2="316.61" y2="20.37"/>
        <line class="cls-3" x1="306.91" y1="20.37" x2="312.06" y2="20.37"/>
        <line class="cls-3" x1="310.96" y1="24" x2="316.61" y2="24"/>
        <line class="cls-3" x1="306.91" y1="24" x2="308.37" y2="24"/>
        <g>
          <path class="cls-3" d="M307.74,45.53l3.26,3.86c.36.42,1.01.42,1.37,0l3.26-3.86"/>
          <path class="cls-3" d="M307.74,45.53c-.37-.5-.53-1.16-.36-1.85.19-.77.82-1.4,1.6-1.58,1.19-.28,2.28.42,2.61,1.46.03.1.17.1.21,0,.33-1.04,1.41-1.74,2.61-1.46.78.18,1.41.8,1.6,1.58.17.69,0,1.35-.36,1.85"/>
        </g>
        <polyline class="cls-3" points="380.92 41.44 368.77 41.44 368.77 49.19"/>
        <line class="cls-3" x1="382.12" y1="83.32" x2="351.69" y2="83.32"/>
        <line class="cls-3" x1="382.82" y1="89.37" x2="389.01" y2="89.37"/>
        <line class="cls-3" x1="291.94" y1="89.37" x2="328.34" y2="89.37"/>
        <line class="cls-3" x1="364.72" y1="103.69" x2="353.39" y2="103.69"/>
        <line class="cls-3" x1="361.51" y1="109.92" x2="361.51" y2="121.64"/>
        <line class="cls-3" x1="347.87" y1="73.16" x2="353.61" y2="73.16"/>
        <line class="cls-3" x1="375.83" y1="73.16" x2="381.57" y2="73.16"/>
        <line class="cls-3" x1="350.13" y1="64.73" x2="355.1" y2="67.6"/>
        <line class="cls-3" x1="374.34" y1="67.6" x2="379.31" y2="64.73"/>
        <line class="cls-3" x1="356.29" y1="58.57" x2="359.16" y2="63.53"/>
        <line class="cls-3" x1="370.27" y1="63.53" x2="373.14" y2="58.57"/>
        <line class="cls-3" x1="364.72" y1="56.31" x2="364.72" y2="62.05"/>
        <path class="cls-3" d="M366.44,71.5l-3.34-3.34c-.5-.5-1.3-.5-1.79,0l-1.6,1.6c-.5.5-.5,1.3,0,1.79l3.34,3.34"/>
        <path class="cls-3" d="M361.27,68.2l-6.92-6.92c-.42-.42-1.1-.42-1.51,0h0c-.42.42-.42,1.1,0,1.51l6.92,6.92"/>
        <line class="cls-3" x1="361.51" y1="111.93" x2="364.74" y2="111.93"/>
        <line class="cls-3" x1="361.51" y1="115.72" x2="364.74" y2="115.72"/>
        <line class="cls-3" x1="361.51" y1="119.5" x2="369.17" y2="119.5"/>
        <polyline class="cls-3" points="358.31 103.69 358.31 109.92 364.72 109.92 372.37 109.92 372.37 103.69"/>
        <line class="cls-3" x1="369.17" y1="109.92" x2="369.17" y2="121.77"/>
        <line class="cls-3" x1="369.17" y1="111.93" x2="364.74" y2="111.93"/>
        <line class="cls-3" x1="369.17" y1="115.72" x2="364.62" y2="115.72"/>
        <line class="cls-3" x1="338.1" y1="77.27" x2="331.69" y2="88.8"/>
        <path class="cls-3" d="M330.44,98.83c.34,1.02.81,1.99,1.39,2.87"/>
        <path class="cls-3" d="M329.88,95.93c.07,1,.26,1.98.56,2.9"/>
        <path class="cls-3" d="M331.69,88.8c-.85,1.34-1.44,2.87-1.7,4.51"/>
        <polyline class="cls-3" points="377.29 93.96 377.29 103.69 364.72 103.69"/>
        <path class="cls-3" d="M364.72,48.85c13.42,0,24.31,10.88,24.31,24.31"/>
        <path class="cls-3" d="M341.7,65.34c3.25-9.59,12.33-16.49,23.02-16.49"/>
        <path class="cls-3" d="M344.71,70.77c1.18-10,9.69-17.75,20.01-17.75,11.13,0,20.15,9.02,20.15,20.15s-9.02,20.15-20.15,20.15c-3.27,0-6.35-.78-9.08-2.16"/>
        <path class="cls-3" d="M355.15,83.32c-2.72-2.55-4.41-6.17-4.41-10.19,0-3.46,1.26-6.63,3.35-9.08"/>
        <line class="cls-3" x1="389.01" y1="65.21" x2="387.74" y2="65.21"/>
        <line class="cls-3" x1="300.03" y1="32.75" x2="323.23" y2="32.75"/>
        <path class="cls-3" d="M356.19,95.12c0-2.85-.82-5.51-2.25-7.75h0s-12.25-22.03-12.25-22.03l-12.25,22.03"/>
        <path class="cls-3" d="M353.39,103.69c1.76-2.4,2.8-5.36,2.8-8.57"/>
        <path class="cls-3" d="M341.7,109.62c4.8,0,9.05-2.33,11.69-5.92"/>
        <path class="cls-3" d="M355.6,62.53c2.45-2.11,5.64-3.39,9.12-3.39"/>
        <path class="cls-3" d="M380.92,20.37v32.82c0,.54-.11,1.06-.31,1.53"/>
        <path class="cls-3" d="M346.45,57.12h-42.49c-2.17,0-3.93-1.76-3.93-3.93V12.41c0-2.17,1.76-3.93,3.93-3.93h41.87"/>
        <path class="cls-3" d="M311.61,31.64c6.4,0,11.58-5.18,11.58-11.58h0c0-6.4-5.18-11.58-11.58-11.58"/>
        <path class="cls-3" d="M311.63,33.92h0c-6.41,0-11.6,5.19-11.6,11.6h0c0,6.41,5.19,11.6,11.6,11.6h0"/>
        <path class="cls-3" d="M310.96,16.74c0,.71-.58,1.29-1.29,1.29s-1.29-.58-1.29-1.29.58-1.29,1.29-1.29"/>
        <path class="cls-3" d="M312.06,20.37c0-.71.58-1.29,1.29-1.29s1.29.58,1.29,1.29-.58,1.29-1.29,1.29"/>
        <path class="cls-3" d="M309.66,25.3c-.71,0-1.29-.58-1.29-1.29s.58-1.29,1.29-1.29,1.29.58,1.29,1.29"/>
        <path class="cls-3" d="M340.47,2.68c.94,0,1.7.76,1.7,1.7s-.76,1.7-1.7,1.7-1.7-.76-1.7-1.7"/>
        <path class="cls-3" d="M364.74,88.11c-1.32,0-2.4-1.07-2.4-2.4s1.07-2.4,2.4-2.4"/>
        <path class="cls-3" d="M372.8,83.32c1.32,0,2.4,1.07,2.4,2.4"/>
        <path class="cls-3" d="M356.69,83.32c1.32,0,2.4,1.07,2.4,2.4s-1.07,2.4-2.4,2.4-2.4-1.07-2.4-2.4"/>
        <path class="cls-3" d="M366.44,74.89c-.94.94-2.45.94-3.39,0-.94-.94-.94-2.45,0-3.39"/>
        <path class="cls-3" d="M335.07,46.54c2.91,0,5.27,2.36,5.27,5.27s-2.36,5.27-5.27,5.27-5.27-2.36-5.27-5.27"/>
        <line class="cls-3" x1="353.21" y1="40.03" x2="345.76" y2="40.03"/>
        <path class="cls-3" d="M335.07,49.41c1.33,0,2.4,1.08,2.4,2.4s-1.08,2.4-2.4,2.4"/>
        <line class="cls-3" x1="351.62" y1="51.81" x2="340.34" y2="51.81"/>
        <path class="cls-3" d="M327.71,48.93v-10.98h-1.91c-1.42,0-2.56,1.15-2.56,2.56v5.85"/>
        <line class="cls-3" x1="343.08" y1="37.35" x2="343.08" y2="51.81"/>
        <line class="cls-3" x1="353.21" y1="40.03" x2="353.21" y2="48.04"/>
        <line class="cls-3" x1="343.08" y1="42.88" x2="327.71" y2="42.88"/>
        <path class="cls-3" d="M360.9,45.05c0,.89.72,1.61,1.61,1.61h1.88"/>
        <path class="cls-3" d="M351.68,52.64c-.04-.27-.06-.55-.06-.83,0-2.91,2.36-5.27,5.27-5.27"/>
        <path class="cls-3" d="M353.21,40.03l9,.65c1.23.09,2.19,1.12,2.19,2.35v5.81"/>
        <line class="cls-3" x1="329.57" y1="31.64" x2="347.9" y2="31.64"/>
        <polyline class="cls-3" points="329.8 51.81 327.71 51.81 327.71 37.95"/>
        <polyline class="cls-3" points="340.49 31.64 340.49 40.03 333.83 40.03"/>
        <path class="cls-3" d="M291.94,11.28c0-6.02,4.88-10.9,10.9-10.9"/>
        <path class="cls-3" d="M380.92,32.37c-3.92,1.51-7.01,4.82-8.13,9.06h0"/>
        <path class="cls-3" d="M389.03,73.16c0,13.42-10.88,24.31-24.31,24.31-3.01,0-5.89-.55-8.55-1.55"/>
        <path class="cls-3" d="M327.2,95.12c0,8,6.49,14.49,14.49,14.49"/>
        <path class="cls-3" d="M329.45,87.37c-1.42,2.24-2.25,4.9-2.25,7.75"/>
        <path class="cls-3" d="M364.72,59.15c7.72,0,13.98,6.26,13.98,13.98,0,4.02-1.7,7.65-4.41,10.2"/>
        <path class="cls-3" d="M345.83,8.48h31.16c2.17,0,3.93,1.76,3.93,3.93v7.96"/>
        <path class="cls-3" d="M311.61,8.48h0c-6.4,0-11.58,5.18-11.58,11.58h0c0,6.4,5.18,11.58,11.58,11.58h0"/>
        <path class="cls-3" d="M311.63,57.12c6.41,0,11.6-5.19,11.6-11.6h0c0-6.41-5.19-11.6-11.6-11.6"/>
        <path class="cls-3" d="M373.57,50.51c.75-1.01,1.96-1.66,3.31-1.66,2.28,0,4.14,1.85,4.14,4.14,0,.64-.14,1.24-.4,1.78"/>
        <path class="cls-3" d="M309.66,15.45c.71,0,1.29.58,1.29,1.29"/>
        <path class="cls-3" d="M313.36,21.67c-.71,0-1.29-.58-1.29-1.29"/>
        <path class="cls-3" d="M310.96,24c0,.71-.58,1.29-1.29,1.29"/>
        <path class="cls-3" d="M338.78,4.38c0-.94.76-1.7,1.7-1.7"/>
        <path class="cls-3" d="M364.74,83.32c1.32,0,2.4,1.07,2.4,2.4s-1.07,2.4-2.4,2.4"/>
        <path class="cls-3" d="M375.2,85.72c0,1.32-1.07,2.4-2.4,2.4s-2.4-1.07-2.4-2.4,1.07-2.4,2.4-2.4"/>
        <path class="cls-3" d="M354.29,85.72c0-1.32,1.07-2.4,2.4-2.4"/>
        <path class="cls-3" d="M363.05,71.5c.94-.94,2.45-.94,3.39,0,.94.94.94,2.45,0,3.39"/>
        <g>
          <path class="cls-3" d="M329.8,51.81c0-2.91,2.36-5.27,5.27-5.27"/>
          <path class="cls-3" d="M345.76,40.03c-1.48,0-2.68-1.2-2.68-2.68v-5.71"/>
          <path class="cls-3" d="M335.07,54.21c-1.33,0-2.4-1.08-2.4-2.4s1.08-2.4,2.4-2.4"/>
          <path class="cls-3" d="M323.24,46.36c0,1.42,1.15,2.56,2.56,2.56h1.91"/>
          <path class="cls-3" d="M364.39,43.44h-1.88c-.89,0-1.61.72-1.61,1.61h0"/>
          <path class="cls-3" d="M347.9,31.64c.93,0,1.77.54,2.15,1.39l3.15,7.01"/>
          <path class="cls-3" d="M327.71,37.95v-4.45c0-1.03.83-1.86,1.86-1.86"/>
          <path class="cls-3" d="M333.83,40.03c-1.48,0-2.68-1.2-2.68-2.68v-5.71"/>
          <path class="cls-3" d="M356.89,46.54c1.91,0,3.58,1.02,4.51,2.54"/>
        </g>
        <rect class="cls-1" x="382.19" y="108.56" width="2.48" height="2.48" transform="translate(491.99 -273.98) rotate(89.82)"/>
        <rect class="cls-1" x="297.11" y="108.39" width="2.48" height="2.48" transform="translate(407.02 -189.07) rotate(89.82)"/>
        <line class="cls-3" x1="291.94" y1="65.34" x2="291.94" y2="121.64"/>
        <line class="cls-3" x1="193.63" y1="121.77" x2="389.01" y2="121.77"/>
        <line class="cls-3" x1=".62" y1="121.77" x2="193.63" y2="121.77"/>
      </g>
      <g>
        <path class="cls-3" d="M564.64,109.65h-10.78c-6.72,0-12.16,5.45-12.16,12.16"/>
        <path class="cls-3" d="M582.06,121.75c-2.63-7.07-9.44-12.1-17.42-12.1"/>
        <path class="cls-2" d="M551.15,109.96c-11.63-7.87-25.66-12.46-40.76-12.46"/>
        <g>
          <polyline class="cls-3" points="620.08 28.83 626.26 53.65 644.12 53.65 650.29 28.83"/>
          <line class="cls-3" x1="628.74" y1="53.65" x2="628.74" y2="73.22"/>
          <line class="cls-3" x1="641.62" y1="53.65" x2="641.62" y2="73.22"/>
          <line class="cls-3" x1="632.85" y1="28.04" x2="632.85" y2="53.12"/>
          <line class="cls-3" x1="637.52" y1="53.12" x2="637.52" y2="28.04"/>
          <path class="cls-3" d="M619.62,88.14c-2.05,0-3.7-1.66-3.7-3.7s1.66-3.7,3.7-3.7"/>
          <path class="cls-3" d="M671.88,84.44c0,2.05-1.66,3.7-3.7,3.7s-3.7-1.66-3.7-3.7"/>
          <path class="cls-3" d="M632.1,84.44c0-2.05,1.66-3.7,3.7-3.7s3.7,1.66,3.7,3.7"/>
          <path class="cls-3" d="M651.99,80.73c2.05,0,3.7,1.66,3.7,3.7s-1.66,3.7-3.7,3.7"/>
          <line class="cls-3" x1="656.03" y1="46.55" x2="656.03" y2="51.6"/>
          <line class="cls-3" x1="662.12" y1="46.55" x2="662.12" y2="51.6"/>
          <line class="cls-3" x1="674.28" y1="46.55" x2="674.28" y2="51.6"/>
          <line class="cls-3" x1="668.2" y1="46.55" x2="668.2" y2="51.6"/>
          <polyline class="cls-3" points="680.31 36.8 670.59 36.8 670.59 .39 691.21 .39"/>
          <polyline class="cls-3" points="668.17 61.08 668.17 61.08 641.62 61.08"/>
          <polyline class="cls-3" points="619.7 73.3 619.7 73.3 619.7 73.3 668.17 73.3 668.17 73.3 668.17 73.3"/>
          <polyline class="cls-3" points="628.74 61.08 619.7 61.08 619.7 61.08"/>
          <path class="cls-3" d="M622.06,36.8h-9.99c-2.54,0-4.59,2.06-4.59,4.59v51.5c0,2.54,2.06,4.59,4.59,4.59h63.64c2.54,0,4.59-2.06,4.59-4.59v-51.5c0-2.54-2.06-4.59-4.59-4.59h-27.41"/>
          <path class="cls-3" d="M670.59,24.61h-4.43l-12.97,3.43h-21.36c0-4.8,3.88-8.68,8.68-8.68h10.01l8.87-5.56-5.53,3.46-5.15-4.29h-13.44l-12.2,5.43-9.82,11.16c-1.35,1.35-3.4,1.26-4.75-.09-1.35-1.35-1.35-3.54,0-4.89l-.02.02,8.69-12.11,17.33-12.11h20.12l12.3,6.67h3.67"/>
        </g>
        <path class="cls-3" d="M619.62,80.73c2.05,0,3.7,1.66,3.7,3.7s-1.66,3.7-3.7,3.7"/>
        <path class="cls-3" d="M664.47,84.44c0-2.05,1.66-3.7,3.7-3.7s3.7,1.66,3.7,3.7"/>
        <path class="cls-3" d="M639.51,84.44c0,2.05-1.66,3.7-3.7,3.7s-3.7-1.66-3.7-3.7"/>
        <path class="cls-3" d="M651.99,88.14c-2.05,0-3.7-1.66-3.7-3.7s1.66-3.7,3.7-3.7"/>
        <path class="cls-3" d="M644.37,12.97c2.21,1.63,3.96,3.83,5.05,6.39"/>
        <path class="cls-3" d="M620.08,28.83c-.25-1.09-.37-2.23-.37-3.4,0-1.28.16-2.52.45-3.71"/>
        <path class="cls-3" d="M668.17,73.3c3.37,0,6.11-2.74,6.11-6.11h0c0-3.37-2.74-6.11-6.11-6.11"/>
        <path class="cls-3" d="M619.7,61.08c-3.37,0-6.11,2.74-6.11,6.11h0c0,3.37,2.74,6.11,6.11,6.11"/>
        <path class="cls-3" d="M650.29,28.83c.06-.26.11-.53.16-.79"/>
        <g>
          <polyline class="cls-3" points="504.32 67.19 486.11 67.19 486.11 73.22 510.39 78.72 510.39 97.49"/>
          <line class="cls-3" x1="504.32" y1="67.19" x2="504.32" y2="77.34"/>
          <line class="cls-3" x1="492.18" y1="55.05" x2="449.7" y2="48.94"/>
          <line class="cls-3" x1="437.79" y1="49.1" x2="399.86" y2="11.2"/>
          <line class="cls-3" x1="449.7" y1="48.94" x2="389.03" y2="48.93"/>
          <line class="cls-3" x1="419.33" y1="36.84" x2="425.54" y2="36.84"/>
          <path class="cls-3" d="M437.56,121.77c13.41,0,24.28-10.87,24.28-24.28s-10.87-24.28-24.28-24.28"/>
          <path class="cls-3" d="M437.56,107.09c5.3,0,9.59-4.3,9.59-9.59"/>
          <path class="cls-3" d="M427.97,97.49c0,5.3,4.3,9.59,9.59,9.59"/>
          <path class="cls-3" d="M468.32,97.49h42.07v12.14l-39.53.02c-2.43,0-4.17-2.3-3.55-4.64.76-2.89,1.11-5.95.98-9.11-.63-15.87-13.45-28.82-29.32-29.59-10.4-.5-19.74,4.14-25.69,11.6"/>
          <path class="cls-3" d="M419.33,48.94c-3.34,0-6.05-2.71-6.05-6.05,0-3.34,2.71-6.05,6.05-6.05"/>
          <path class="cls-3" d="M437.56,73.22c-13.41,0-24.28,10.87-24.28,24.28s10.87,24.28,24.28,24.28"/>
          <path class="cls-3" d="M437.56,87.9c-5.3,0-9.59,4.3-9.59,9.59"/>
          <path class="cls-3" d="M504.32,67.19c0-6.7-5.16-11.19-12.11-12.11"/>
          <path class="cls-3" d="M399.86,11.2c-2.92-2.92-7.12-4.15-11.48-4.15"/>
          <path class="cls-3" d="M405.91,5.15c-3.35-3.35-8.16-4.76-13.17-4.76"/>
          <line class="cls-3" x1="406.42" y1="97.48" x2="388.99" y2="97.48"/>
          <path class="cls-3" d="M447.16,97.49c0-5.3-4.3-9.59-9.59-9.59"/>
          <path class="cls-3" d="M437.46,66.27c-17.14,0-31.04,14.07-31.04,31.21"/>
          <path class="cls-3" d="M449.7,48.94c0,6.75-2.24,12.97-6.02,17.96"/>
          <line class="cls-3" x1="412.86" y1="12.1" x2="405.91" y2="5.15"/>
          <line class="cls-3" x1="449.7" y1="48.94" x2="412.86" y2="12.1"/>
        </g>
        <path class="cls-3" d="M551.13,109.96c-11.63-7.87-25.66-12.46-40.76-12.46"/>
        <g>
          <line class="cls-3" x1="680.31" y1="97.49" x2="628.21" y2="97.49"/>
          <line class="cls-3" x1="680.31" y1="113.61" x2="662.7" y2="113.61"/>
          <line class="cls-3" x1="671" y1="97.49" x2="671" y2="113.61"/>
          <path class="cls-3" d="M608.94,101.68l-17.12-2.91c-4.44-.75-8.31,3.05-7.64,7.5l2.33,15.4"/>
          <path class="cls-3" d="M614.93,105.55c4.1-1.43,8.5-2.21,13.09-2.21"/>
          <path class="cls-3" d="M631.75,103.52c2.03.19,4.01.53,5.93,1.01"/>
          <line class="cls-3" x1="680.31" y1="97.49" x2="680.31" y2="113.61"/>
          <path class="cls-3" d="M587.95,121.68c7.65-14.39,22.8-24.18,40.26-24.18"/>
          <path class="cls-3" d="M628.02,97.49c17.4,0,32.52,9.8,40.13,24.18"/>
          <path class="cls-3" d="M594.56,121.64c4.76-7.41,11.91-13.14,20.36-16.09"/>
          <path class="cls-3" d="M607.44,121.78c5.24-4.99,12.34-8.06,20.15-8.06s14.81,3.02,20.04,7.96"/>
        </g>
        <line class="cls-3" x1="392.74" y1=".39" x2="388.83" y2=".39"/>
        <path class="cls-3" d="M548.55,19.83c-4.14,8.01-11.84,14.06-21.41,15.73"/>
        <line class="cls-3" x1="551.31" y1="14.48" x2="548.55" y2="19.83"/>
        <line class="cls-3" x1="557.99" y1="16.66" x2="555.5" y2="21.49"/>
        <path class="cls-3" d="M557.99,16.66c2.06-3.87,5.82-6.78,10.47-7.6"/>
        <line class="cls-3" x1="565.61" y1="31.26" x2="595.46" y2="24.16"/>
        <path class="cls-3" d="M563.4,21.15l-1.8,3.49h0c-.16.32-.34.63-.52.94l-.04.07"/>
        <line class="cls-3" x1="591.3" y1="12.1" x2="570.98" y2="15.65"/>
        <path class="cls-3" d="M595.46,24.16c-1.14-4.08-2.52-8.11-4.15-12.06"/>
        <path class="cls-3" d="M510.38,97.49c.11-28.32,2.91-56.63,8.42-84.52h33.42"/>
        <path class="cls-3" d="M510.38,97.49c.11-28.79,5.89-57.57,17.36-84.52"/>
        <line class="cls-3" x1="592.67" y1="4.84" x2="568.47" y2="9.06"/>
        <polyline class="cls-3" points="594.13 30.36 520.8 52.29 538.98 39.95"/>
        <path class="cls-3" d="M591.9,97.72c3.93-20.82,5.98-42.3,5.98-64.27"/>
        <line class="cls-3" x1="527.14" y1="35.56" x2="514.59" y2="37.86"/>
        <polyline class="cls-3" points="522.02 1.33 522.02 9.06 520.63 12.97"/>
        <path class="cls-3" d="M533.78.39c-3.93-.04-7.87.27-11.76.94"/>
        <path class="cls-3" d="M522.02,9.06c1.29-.22,2.59-.41,3.89-.55"/>
        <path class="cls-3" d="M531.86,4.3c1.89-.04,3.77.01,5.66.14"/>
        <line class="cls-3" x1="595.11" y1=".43" x2="562.93" y2="6.05"/>
        <path class="cls-3" d="M607.49,48.93c-.06-4.91-.45-9.82-1.19-14.69"/>
        <path class="cls-3" d="M594.74,30.3c-.21,0-.41.02-.6.06"/>
        <path class="cls-3" d="M592.02,51.6h-28.78c-.75,0-1.36-.61-1.36-1.36v-4.79c0-.75.61-1.36,1.36-1.36h14.39"/>
        <path class="cls-3" d="M577.63,44.08h14.39c.75,0,1.36.61,1.36,1.36v4.79c0,.75-.61,1.36-1.36,1.36"/>
        <path class="cls-3" d="M538.61,103.17c11.57-8.33,24.41-17.88,31.32-23.99"/>
        <path class="cls-3" d="M569.66,67.97c-3.64-3.58-20.53-12.23-29.14-16.68"/>
        <line class="cls-3" x1="576.44" y1="60.75" x2="546.83" y2="48.94"/>
        <path class="cls-3" d="M540.52,104c12.85-8.15,27.2-17.56,34.82-23.56"/>
        <path class="cls-3" d="M523.57,70.52c-2.11,0-3.62-2.05-2.99-4.06h0c.41-1.31,1.62-2.2,2.99-2.2"/>
        <line class="cls-3" x1="538.91" y1="70.52" x2="523.57" y2="70.52"/>
        <line class="cls-3" x1="523.57" y1="64.25" x2="538.91" y2="64.25"/>
        <line class="cls-3" x1="521.57" y1="72.63" x2="557.13" y2="72.63"/>
        <line class="cls-3" x1="557.13" y1="78.9" x2="521.57" y2="78.9"/>
        <path class="cls-3" d="M557.13,72.63c2.19,0,3.71,2.2,2.93,4.25h0c-.46,1.21-1.63,2.02-2.93,2.02"/>
        <g>
          <path class="cls-3" d="M551.31,14.48c2.28-4.29,6.45-7.52,11.62-8.43"/>
          <path class="cls-3" d="M561.05,25.65c-.84,1.48-.62,3.39.64,4.66,1.06,1.06,2.59,1.38,3.93.96"/>
          <path class="cls-3" d="M570.98,15.65c-3.37.59-6.09,2.7-7.58,5.5h0"/>
          <path class="cls-3" d="M605.93,32.01c-.7-5.04-5.44-8.55-10.48-7.85"/>
          <path class="cls-3" d="M591.3,12.1c0-4.36,1.4-8.43,3.8-11.68"/>
          <path class="cls-3" d="M555.51,21.49c-3.82,7.41-9.5,13.8-16.53,18.46"/>
          <path class="cls-3" d="M545.56,12.97l-1.38-3.91s0-7.73,0-7.73c-3.44-.59-6.92-.91-10.41-.94"/>
          <path class="cls-3" d="M525.91,8.51c1.3-.14,2.61-.25,3.91-.31"/>
          <path class="cls-3" d="M522.02,5.24c3.26-.56,6.55-.87,9.84-.94"/>
          <path class="cls-3" d="M540.75,8.57c1.15.14,2.29.3,3.43.5"/>
          <path class="cls-3" d="M606.3,34.25c-1.77-11.66-5.48-23.09-11.15-33.75l-.04-.07"/>
          <path class="cls-3" d="M597.88,33.44c0-1.73-1.41-3.14-3.14-3.14"/>
          <path class="cls-3" d="M569.66,67.97c2.74,2.11,3.63,5.95,1.95,9.11-.44.82-1.01,1.53-1.68,2.1"/>
          <path class="cls-3" d="M575.34,80.44c8.14-6.42,10.08-16.24,1.11-19.69"/>
          <path class="cls-3" d="M538.91,64.25c2.11,0,3.62,2.05,2.99,4.06h0c-.41,1.31-1.62,2.2-2.99,2.2"/>
          <path class="cls-3" d="M521.57,78.9c-2.11,0-3.61-2.04-2.99-4.05h0c.4-1.31,1.62-2.21,2.99-2.21"/>
          <path class="cls-3" d="M519.84,87.28c-2.19,0-3.71-2.2-2.93-4.25h0c.46-1.21,1.63-2.02,2.93-2.02"/>
        </g>
        <line class="cls-3" x1="549.12" y1="87.28" x2="519.84" y2="87.28"/>
        <path class="cls-3" d="M549.12,81.01c2.19,0,3.71,2.2,2.93,4.25h0c-.46,1.21-1.63,2.02-2.93,2.02"/>
        <line class="cls-3" x1="519.84" y1="81.01" x2="549.12" y2="81.01"/>
        <line class="cls-3" x1="476.13" y1="46.59" x2="476.13" y2="52.66"/>
        <line class="cls-3" x1="468.09" y1="46.59" x2="468.09" y2="51.6"/>
        <line class="cls-3" x1="464.08" y1="46.59" x2="464.08" y2="50.99"/>
        <line class="cls-3" x1="472.1" y1="46.59" x2="472.1" y2="52.16"/>
        <line class="cls-3" x1="484.13" y1="46.59" x2="484.13" y2="53.89"/>
        <line class="cls-3" x1="480.12" y1="46.59" x2="480.12" y2="53.33"/>
        <line class="cls-3" x1="488.14" y1="46.59" x2="488.14" y2="54.47"/>
        <line class="cls-3" x1="464.08" y1="48.53" x2="468.09" y2="48.53"/>
        <line class="cls-3" x1="472.1" y1="50.11" x2="476.13" y2="50.11"/>
        <line class="cls-3" x1="476.13" y1="48.53" x2="480.12" y2="48.53"/>
        <line class="cls-3" x1="488.14" y1="52.79" x2="492.15" y2="52.79"/>
        <line class="cls-3" x1="507.56" y1="30.05" x2="499.53" y2="32.21"/>
        <line class="cls-3" x1="476.11" y1="5.93" x2="476.11" y2="15.12"/>
        <line class="cls-3" x1="484.54" y1="7.03" x2="482.17" y2="15.88"/>
        <line class="cls-3" x1="499.13" y1="15.46" x2="492.87" y2="21.72"/>
        <line class="cls-3" x1="504.31" y1="22.2" x2="496.85" y2="26.51"/>
        <line class="cls-3" x1="451.56" y1="38.48" x2="443.45" y2="38.48"/>
        <line class="cls-3" x1="508.77" y1="38.48" x2="500.66" y2="38.48"/>
        <line class="cls-3" x1="492.39" y1="10.29" x2="487.87" y2="18.11"/>
        <line class="cls-3" x1="444.68" y1="30.05" x2="452.64" y2="32.19"/>
        <line class="cls-3" x1="467.7" y1="7.03" x2="470.07" y2="15.87"/>
        <line class="cls-3" x1="453.11" y1="15.46" x2="459.36" y2="21.71"/>
        <line class="cls-3" x1="447.93" y1="22.2" x2="455.38" y2="26.5"/>
        <line class="cls-3" x1="459.85" y1="10.29" x2="464.37" y2="18.11"/>
        <path class="cls-3" d="M511.4,23.29c1.85,4.14,3,8.66,3.29,13.42"/>
        <path class="cls-3" d="M455.2,6.57c6.03-3.89,13.21-6.14,20.91-6.14,15.72,0,29.25,9.39,35.28,22.86"/>
        <path class="cls-3" d="M441.79,21.3c3.11-6,7.76-11.09,13.41-14.73"/>
        <path class="cls-3" d="M437.54,36.7c.33-5.53,1.83-10.74,4.25-15.4"/>
        <path class="cls-3" d="M513.04,50.49c-1.76,5.71-4.82,10.86-8.82,15.1"/>
        <path class="cls-3" d="M486.11,46.59h3.81c1.23,0,2.23,1,2.23,2.23v5.57c0,.24-.04.47-.11.69"/>
        <line class="cls-3" x1="466.09" y1="46.59" x2="486.11" y2="46.59"/>
        <path class="cls-3" d="M460.07,48.82c0-1.23,1-2.23,2.23-2.23h3.79"/>
        <line class="cls-3" x1="460.07" y1="50.43" x2="460.07" y2="48.82"/>
        <line class="cls-3" x1="462.94" y1="36.56" x2="468.54" y2="36.56"/>
        <path class="cls-3" d="M454.15,46h2.14c1.14,0,2.12-.8,2.35-1.91l1.01-4.84c.32-1.56,1.7-2.68,3.3-2.68"/>
        <line class="cls-3" x1="446.99" y1="46" x2="454.15" y2="46"/>
        <path class="cls-3" d="M476.58,5.93c-18.25-.26-33.13,14.46-33.13,32.66,0,1.43.09,2.83.27,4.21"/>
        <path class="cls-3" d="M496.3,12.97c-5.46-4.32-12.31-6.94-19.72-7.04"/>
        <path class="cls-3" d="M492.58,39.24l1.01,4.84c.23,1.11,1.21,1.91,2.35,1.91,2.62,0,7.25,0,9.93,0,1.25,0,2.29-.92,2.49-2.15.33-2.06.48-4.19.4-6.36-.32-9.91-5.14-18.74-12.45-24.52"/>
        <path class="cls-3" d="M489.29,36.56c1.6,0,2.97,1.12,3.3,2.68"/>
        <line class="cls-3" x1="479.26" y1="36.56" x2="489.29" y2="36.56"/>
        <path class="cls-3" d="M451.9,18.38l26.16,16.96h-.01c.11.06.21.13.31.21"/>
        <path class="cls-3" d="M450.5,20.21c-.5-.39-.6-1.11-.21-1.61s1.11-.6,1.61-.21"/>
        <line class="cls-3" x1="473.49" y1="41.05" x2="450.5" y2="20.21"/>
        <path class="cls-3" d="M478.36,35.55c1.61,1.24,1.91,3.55.67,5.17s-3.55,1.91-5.17.67c-.14-.1-.26-.22-.38-.34h0"/>
        <g>
          <g>
            <path class="cls-3" d="M757.54,112.82l8.74-.03c1.01,1.97,3.06,3.33,5.42,3.32"/>
            <path class="cls-3" d="M771.67,103.97c-2.38,0-4.43,1.39-5.42,3.38h-5.51"/>
            <polyline class="cls-3" points="691.82 112.55 697.48 112.53 697.45 107.13 691.79 107.12"/>
            <path class="cls-3" d="M686.36,103.8c-3.35.01-6.06,2.74-6.05,6.09s2.74,6.06,6.09,6.05"/>
            <polyline class="cls-3" points="709.69 106.86 703.36 106.88 703.38 113.54 712.22 113.51"/>
            <line class="cls-3" x1="742.7" y1="102.24" x2="750.09" y2="121.64"/>
            <line class="cls-3" x1="738.67" y1="106.86" x2="744.31" y2="121.66"/>
            <line class="cls-3" x1="733.76" y1="109.14" x2="738.53" y2="121.68"/>
            <line class="cls-3" x1="728.12" y1="109.48" x2="732.75" y2="121.66"/>
            <line class="cls-3" x1="721.24" y1="106.61" x2="726.98" y2="121.68"/>
            <line class="cls-3" x1="712.34" y1="98.63" x2="721.11" y2="121.66"/>
            <line class="cls-3" x1="706.56" y1="98.65" x2="715.33" y2="121.68"/>
            <polygon class="cls-3" points="697.5 117.65 700.93 117.64 703.39 117.63 703.35 102.75 697.45 102.77 697.5 117.65"/>
          </g>
          <path class="cls-3" d="M771.71,116.11c3.35-.01,6.06-2.74,6.05-6.09s-2.74-6.06-6.09-6.05"/>
          <path class="cls-3" d="M691.79,107.12c-1.01-1.97-3.06-3.33-5.42-3.32"/>
          <path class="cls-3" d="M686.4,115.94c2.38,0,4.43-1.39,5.42-3.38"/>
        </g>
        <path class="cls-3" d="M691.21.39h75.28c6.02,0,10.9,4.88,10.9,10.9v53.93"/>
        <line class="cls-3" x1="680.31" y1="65.34" x2="680.31" y2="11.28"/>
        <line class="cls-3" x1="680.31" y1="65.34" x2="730.07" y2="65.34"/>
        <line class="cls-3" x1="680.31" y1="97.46" x2="715.58" y2="97.46"/>
        <line class="cls-3" x1="711.56" y1="8.48" x2="711.56" y2="57.02"/>
        <line class="cls-3" x1="715.26" y1="77.27" x2="723.27" y2="77.27"/>
        <line class="cls-3" x1="711.56" y1="89.37" x2="715.26" y2="77.27"/>
        <line class="cls-3" x1="711.6" y1="41.44" x2="711.6" y2="52.99"/>
        <line class="cls-3" x1="711.56" y1="20.37" x2="769.3" y2="20.37"/>
        <polyline class="cls-3" points="769.3 20.37 762.54 17.58 753.87 23.74 744.38 16.34 738.86 31.49 734.2 8.48 725.8 25.12 718.31 16.34 711.56 20.37"/>
        <line class="cls-3" x1="699.33" y1="16.74" x2="704.98" y2="16.74"/>
        <line class="cls-3" x1="695.28" y1="16.74" x2="696.74" y2="16.74"/>
        <line class="cls-3" x1="703.02" y1="20.37" x2="704.98" y2="20.37"/>
        <line class="cls-3" x1="695.28" y1="20.37" x2="700.44" y2="20.37"/>
        <line class="cls-3" x1="699.33" y1="24" x2="704.98" y2="24"/>
        <line class="cls-3" x1="695.28" y1="24" x2="696.74" y2="24"/>
        <g>
          <path class="cls-3" d="M696.12,45.53l3.26,3.86c.36.42,1.01.42,1.37,0l3.26-3.86"/>
          <path class="cls-3" d="M696.12,45.53c-.37-.5-.53-1.16-.36-1.85.19-.77.82-1.4,1.6-1.58,1.19-.28,2.28.42,2.61,1.46.03.1.17.1.21,0,.33-1.04,1.41-1.74,2.61-1.46.78.18,1.41.8,1.6,1.58.17.69,0,1.35-.36,1.85"/>
        </g>
        <polyline class="cls-3" points="769.3 41.44 757.15 41.44 757.15 49.19"/>
        <line class="cls-3" x1="770.49" y1="83.32" x2="740.07" y2="83.32"/>
        <line class="cls-3" x1="771.2" y1="89.37" x2="777.39" y2="89.37"/>
        <line class="cls-3" x1="680.31" y1="89.37" x2="716.71" y2="89.37"/>
        <line class="cls-3" x1="753.09" y1="103.69" x2="741.76" y2="103.69"/>
        <line class="cls-3" x1="749.89" y1="109.92" x2="749.89" y2="121.64"/>
        <line class="cls-3" x1="736.24" y1="73.16" x2="741.98" y2="73.16"/>
        <line class="cls-3" x1="764.2" y1="73.16" x2="769.94" y2="73.16"/>
        <line class="cls-3" x1="738.5" y1="64.73" x2="743.47" y2="67.6"/>
        <line class="cls-3" x1="762.72" y1="67.6" x2="767.69" y2="64.73"/>
        <line class="cls-3" x1="744.67" y1="58.57" x2="747.54" y2="63.53"/>
        <line class="cls-3" x1="758.65" y1="63.53" x2="761.52" y2="58.57"/>
        <line class="cls-3" x1="753.09" y1="56.31" x2="753.09" y2="62.05"/>
        <path class="cls-3" d="M754.81,71.5l-3.34-3.34c-.5-.5-1.3-.5-1.79,0l-1.6,1.6c-.5.5-.5,1.3,0,1.79l3.34,3.34"/>
        <path class="cls-3" d="M749.64,68.2l-6.92-6.92c-.42-.42-1.1-.42-1.51,0h0c-.42.42-.42,1.1,0,1.51l6.92,6.92"/>
        <line class="cls-3" x1="749.89" y1="111.93" x2="753.12" y2="111.93"/>
        <line class="cls-3" x1="749.89" y1="115.72" x2="753.12" y2="115.72"/>
        <line class="cls-3" x1="749.89" y1="119.5" x2="757.54" y2="119.5"/>
        <polyline class="cls-3" points="746.68 103.69 746.68 109.92 753.09 109.92 760.75 109.92 760.75 103.69"/>
        <line class="cls-3" x1="757.54" y1="109.92" x2="757.54" y2="121.77"/>
        <line class="cls-3" x1="757.54" y1="111.93" x2="753.12" y2="111.93"/>
        <line class="cls-3" x1="757.54" y1="115.72" x2="753" y2="115.72"/>
        <line class="cls-3" x1="726.48" y1="77.27" x2="720.07" y2="88.8"/>
        <path class="cls-3" d="M718.82,98.83c.34,1.02.81,1.99,1.39,2.87"/>
        <path class="cls-3" d="M718.26,95.93c.07,1,.26,1.98.56,2.9"/>
        <path class="cls-3" d="M720.06,88.8c-.85,1.34-1.44,2.87-1.7,4.51"/>
        <polyline class="cls-3" points="765.67 93.96 765.67 103.69 753.09 103.69"/>
        <path class="cls-3" d="M753.09,48.85c13.42,0,24.31,10.88,24.31,24.31"/>
        <path class="cls-3" d="M730.07,65.34c3.25-9.59,12.33-16.49,23.02-16.49"/>
        <path class="cls-3" d="M733.09,70.77c1.18-10,9.69-17.75,20.01-17.75,11.13,0,20.15,9.02,20.15,20.15s-9.02,20.15-20.15,20.15c-3.27,0-6.35-.78-9.08-2.16"/>
        <path class="cls-3" d="M743.53,83.32c-2.72-2.55-4.41-6.17-4.41-10.19,0-3.46,1.26-6.63,3.35-9.08"/>
        <line class="cls-3" x1="777.39" y1="65.21" x2="776.11" y2="65.21"/>
        <line class="cls-3" x1="688.4" y1="32.75" x2="711.6" y2="32.75"/>
        <path class="cls-3" d="M744.57,95.12c0-2.85-.82-5.51-2.25-7.75h0s-12.25-22.03-12.25-22.03l-12.25,22.03"/>
        <path class="cls-3" d="M741.76,103.69c1.76-2.4,2.8-5.36,2.8-8.57"/>
        <path class="cls-3" d="M730.07,109.62c4.8,0,9.05-2.33,11.69-5.92"/>
        <path class="cls-3" d="M743.97,62.53c2.45-2.11,5.64-3.39,9.12-3.39"/>
        <path class="cls-3" d="M769.3,20.37v32.82c0,.54-.11,1.06-.31,1.53"/>
        <path class="cls-3" d="M734.83,57.12h-42.49c-2.17,0-3.93-1.76-3.93-3.93V12.41c0-2.17,1.76-3.93,3.93-3.93h41.87"/>
        <path class="cls-3" d="M699.98,31.64c6.4,0,11.58-5.18,11.58-11.58h0c0-6.4-5.18-11.58-11.58-11.58"/>
        <path class="cls-3" d="M700,33.92h0c-6.41,0-11.6,5.19-11.6,11.6h0c0,6.41,5.19,11.6,11.6,11.6h0"/>
        <path class="cls-3" d="M699.33,16.74c0,.71-.58,1.29-1.29,1.29s-1.29-.58-1.29-1.29.58-1.29,1.29-1.29"/>
        <path class="cls-3" d="M700.44,20.37c0-.71.58-1.29,1.29-1.29s1.29.58,1.29,1.29-.58,1.29-1.29,1.29"/>
        <path class="cls-3" d="M698.04,25.3c-.71,0-1.29-.58-1.29-1.29s.58-1.29,1.29-1.29,1.29.58,1.29,1.29"/>
        <path class="cls-3" d="M728.85,2.68c.94,0,1.7.76,1.7,1.7s-.76,1.7-1.7,1.7-1.7-.76-1.7-1.7"/>
        <path class="cls-3" d="M753.12,88.11c-1.32,0-2.4-1.07-2.4-2.4s1.07-2.4,2.4-2.4"/>
        <path class="cls-3" d="M761.17,83.32c1.32,0,2.4,1.07,2.4,2.4"/>
        <path class="cls-3" d="M745.06,83.32c1.32,0,2.4,1.07,2.4,2.4s-1.07,2.4-2.4,2.4-2.4-1.07-2.4-2.4"/>
        <path class="cls-3" d="M754.81,74.89c-.94.94-2.45.94-3.39,0-.94-.94-.94-2.45,0-3.39"/>
        <path class="cls-3" d="M723.44,46.54c2.91,0,5.27,2.36,5.27,5.27s-2.36,5.27-5.27,5.27-5.27-2.36-5.27-5.27"/>
        <line class="cls-3" x1="741.58" y1="40.03" x2="734.14" y2="40.03"/>
        <path class="cls-3" d="M723.44,49.41c1.33,0,2.4,1.08,2.4,2.4s-1.08,2.4-2.4,2.4"/>
        <line class="cls-3" x1="739.99" y1="51.81" x2="728.71" y2="51.81"/>
        <path class="cls-3" d="M716.08,48.93v-10.98h-1.91c-1.42,0-2.56,1.15-2.56,2.56v5.85"/>
        <line class="cls-3" x1="731.46" y1="37.35" x2="731.46" y2="51.81"/>
        <line class="cls-3" x1="741.58" y1="40.03" x2="741.58" y2="48.04"/>
        <line class="cls-3" x1="731.46" y1="42.88" x2="716.08" y2="42.88"/>
        <path class="cls-3" d="M749.27,45.05c0,.89.72,1.61,1.61,1.61h1.88"/>
        <path class="cls-3" d="M740.06,52.64c-.04-.27-.06-.55-.06-.83,0-2.91,2.36-5.27,5.27-5.27"/>
        <path class="cls-3" d="M741.58,40.03l9,.65c1.23.09,2.19,1.12,2.19,2.35v5.81"/>
        <line class="cls-3" x1="717.94" y1="31.64" x2="736.28" y2="31.64"/>
        <polyline class="cls-3" points="718.17 51.81 716.08 51.81 716.08 37.95"/>
        <polyline class="cls-3" points="728.87 31.64 728.87 40.03 722.21 40.03"/>
        <path class="cls-3" d="M680.31,11.28c0-6.02,4.88-10.9,10.9-10.9"/>
        <path class="cls-3" d="M769.3,32.37c-3.92,1.51-7.01,4.82-8.13,9.06h0"/>
        <path class="cls-3" d="M777.4,73.16c0,13.42-10.88,24.31-24.31,24.31-3.01,0-5.89-.55-8.55-1.55"/>
        <path class="cls-3" d="M715.58,95.12c0,8,6.49,14.49,14.49,14.49"/>
        <path class="cls-3" d="M717.83,87.37c-1.42,2.24-2.25,4.9-2.25,7.75"/>
        <path class="cls-3" d="M753.09,59.15c7.72,0,13.98,6.26,13.98,13.98,0,4.02-1.7,7.65-4.41,10.2"/>
        <path class="cls-3" d="M734.2,8.48h31.16c2.17,0,3.93,1.76,3.93,3.93v7.96"/>
        <path class="cls-3" d="M699.98,8.48h0c-6.4,0-11.58,5.18-11.58,11.58h0c0,6.4,5.18,11.58,11.58,11.58h0"/>
        <path class="cls-3" d="M700,57.12c6.41,0,11.6-5.19,11.6-11.6h0c0-6.41-5.19-11.6-11.6-11.6"/>
        <path class="cls-3" d="M761.94,50.51c.75-1.01,1.96-1.66,3.31-1.66,2.28,0,4.14,1.85,4.14,4.14,0,.64-.14,1.24-.4,1.78"/>
        <path class="cls-3" d="M698.04,15.45c.71,0,1.29.58,1.29,1.29"/>
        <path class="cls-3" d="M701.73,21.67c-.71,0-1.29-.58-1.29-1.29"/>
        <path class="cls-3" d="M699.33,24c0,.71-.58,1.29-1.29,1.29"/>
        <path class="cls-3" d="M727.15,4.38c0-.94.76-1.7,1.7-1.7"/>
        <path class="cls-3" d="M753.12,83.32c1.32,0,2.4,1.07,2.4,2.4s-1.07,2.4-2.4,2.4"/>
        <path class="cls-3" d="M763.57,85.72c0,1.32-1.07,2.4-2.4,2.4s-2.4-1.07-2.4-2.4,1.07-2.4,2.4-2.4"/>
        <path class="cls-3" d="M742.66,85.72c0-1.32,1.07-2.4,2.4-2.4"/>
        <path class="cls-3" d="M751.42,71.5c.94-.94,2.45-.94,3.39,0,.94.94.94,2.45,0,3.39"/>
        <g>
          <path class="cls-3" d="M718.17,51.81c0-2.91,2.36-5.27,5.27-5.27"/>
          <path class="cls-3" d="M734.14,40.03c-1.48,0-2.68-1.2-2.68-2.68v-5.71"/>
          <path class="cls-3" d="M723.44,54.21c-1.33,0-2.4-1.08-2.4-2.4s1.08-2.4,2.4-2.4"/>
          <path class="cls-3" d="M711.61,46.36c0,1.42,1.15,2.56,2.56,2.56h1.91"/>
          <path class="cls-3" d="M752.77,43.44h-1.88c-.89,0-1.61.72-1.61,1.61h0"/>
          <path class="cls-3" d="M736.28,31.64c.93,0,1.77.54,2.15,1.39l3.15,7.01"/>
          <path class="cls-3" d="M716.08,37.95v-4.45c0-1.03.83-1.86,1.86-1.86"/>
          <path class="cls-3" d="M722.21,40.03c-1.48,0-2.68-1.2-2.68-2.68v-5.71"/>
          <path class="cls-3" d="M745.27,46.54c1.91,0,3.58,1.02,4.51,2.54"/>
        </g>
        <rect class="cls-1" x="770.56" y="108.56" width="2.48" height="2.48" transform="translate(879.12 -662.35) rotate(89.82)"/>
        <rect class="cls-1" x="685.49" y="108.39" width="2.48" height="2.48" transform="translate(794.15 -577.45) rotate(89.82)"/>
        <line class="cls-3" x1="680.31" y1="65.34" x2="680.31" y2="121.64"/>
        <line class="cls-3" x1="582" y1="121.77" x2="777.39" y2="121.77"/>
        <line class="cls-3" x1="388.99" y1="121.77" x2="582" y2="121.77"/>
      </g>
    </g>
  </g>
</svg>