<?xml version="1.0" encoding="UTF-8"?><svg id="Livello_2" xmlns="http://www.w3.org/2000/svg" viewBox="0 0 513.33 336.22"><defs><style>.cls-1{fill:#fff;}.cls-2{fill:#009cda;}</style></defs><g id="Livello_1-2"><g><g><path class="cls-2" d="M333.59,85.03c0-10.21-1.87-19.82-5.62-28.84-3.75-9.01-9.22-17.01-16.39-23.99-7.12-6.92-15.34-12.24-24.69-16-1.71-.68-3.43-1.28-5.17-1.84V31.41c6.33,2.87,12.05,6.84,17.16,11.94,5.49,5.49,9.71,11.83,12.65,19,2.95,7.17,4.42,14.73,4.42,22.68s-1.46,15.35-4.36,22.39c-2.92,7.05-7.15,13.35-12.71,18.91-5.63,5.62-11.95,9.9-18.97,12.84-6.95,2.91-14.26,4.37-21.94,4.4H2.59v15.95H260.95v-.13c8.7-.18,17.52-2.21,25.84-5.57,9.34-3.78,17.61-9.16,24.79-16.14,7.17-6.98,12.64-14.96,16.39-23.94,3.75-8.98,5.62-18.55,5.62-28.69"/><path class="cls-2" d="M203.85,107.33c-2.88-6.98-4.31-14.41-4.31-22.3s1.45-15.48,4.36-22.59c2.91-7.11,7.15-13.48,12.71-19.1,5.04-5.16,10.79-9.15,17.23-12.03V14.38c-1.71,.55-3.41,1.15-5.09,1.82-9.31,3.75-17.52,9.08-24.64,16-7.24,7.05-12.75,15.07-16.54,24.09-3.78,9.02-5.67,18.6-5.67,28.74s1.89,19.61,5.67,28.6c2.06,4.9,4.65,9.52,7.74,13.85l22.5,.02c-.41-.38-.8-.77-1.2-1.17-5.63-5.69-9.88-12.02-12.76-19"/><path class="cls-2" d="M327.72,143.59c-1.44,1.61-2.94,3.18-4.51,4.71-4.32,4.21-8.96,7.92-13.93,11.17l203.61,.02v-15.89h-185.17Z"/><rect class="cls-1" x="249.83" width="15.95" height="87.94"/></g><g><path class="cls-1" d="M79.6,227.02c0-4.47-.81-8.72-2.45-12.75-1.63-4.03-3.98-7.61-7.04-10.76-2.98-3.1-6.43-5.49-10.36-7.16-3.93-1.67-8.07-2.51-12.42-2.51s-8.49,.82-12.42,2.48c-3.93,1.65-7.42,4.05-10.49,7.19-3.06,3.1-5.4,6.67-7.01,10.7-1.61,4.03-2.42,8.3-2.42,12.81s.81,8.7,2.42,12.69c1.61,3.99,3.95,7.55,7.01,10.69,3.06,3.14,6.55,5.54,10.45,7.19,3.91,1.65,8.06,2.48,12.45,2.48s8.41-.82,12.3-2.48c3.89-1.65,7.38-4.05,10.49-7.19,3.06-3.14,5.41-6.72,7.04-10.73,1.63-4.01,2.45-8.23,2.45-12.66m14.99,0c0,6.28-1.18,12.23-3.53,17.83-2.36,5.6-5.79,10.6-10.3,14.99-4.56,4.39-9.69,7.75-15.42,10.09-5.72,2.34-11.72,3.51-18.01,3.51s-12.44-1.18-18.22-3.53c-5.78-2.36-10.89-5.71-15.32-10.06-4.51-4.4-7.94-9.37-10.27-14.93-2.34-5.56-3.51-11.52-3.51-17.89s1.17-12.29,3.51-17.89c2.34-5.6,5.76-10.62,10.27-15.05,4.51-4.39,9.63-7.74,15.35-10.03,5.72-2.29,11.78-3.45,18.19-3.45s12.4,1.15,18.1,3.45c5.7,2.3,10.81,5.64,15.32,10.03,4.51,4.47,7.94,9.52,10.3,15.14,2.36,5.62,3.53,11.55,3.53,17.8"/><path class="cls-1" d="M107.87,271.08v-91.99l56.21,54.09c1.53,1.53,3.08,3.17,4.65,4.9,1.57,1.73,3.22,3.69,4.95,5.86v-61.34h13.3v91.93l-57.36-55.06c-1.53-1.49-3.01-3.06-4.44-4.72-1.43-1.65-2.79-3.38-4.08-5.19v61.52h-13.24Z"/><path class="cls-2" d="M218.45,258.08h12.09c6.65,0,11.63-.44,14.96-1.33,3.32-.89,6.21-2.38,8.67-4.47,3.34-2.86,5.85-6.42,7.52-10.67,1.67-4.25,2.51-9.2,2.51-14.84s-.84-10.59-2.51-14.84c-1.67-4.25-4.18-7.8-7.52-10.67-2.5-2.09-5.49-3.58-8.98-4.47-3.48-.89-8.93-1.33-16.35-1.33h-10.4v62.61Zm-14.38,13v-88.48h19.4c12.61,0,21.48,.63,26.62,1.9,5.14,1.27,9.64,3.4,13.51,6.38,5.12,3.91,8.99,8.93,11.63,15.05,2.64,6.13,3.96,13.11,3.96,20.97s-1.32,14.82-3.96,20.88c-2.64,6.06-6.52,11.07-11.63,15.02-3.87,2.98-8.27,5.11-13.21,6.38s-12.62,1.9-23.05,1.9h-23.27Z"/><path class="cls-2" d="M306.86,220.31h2.6c7.61,0,12.67-.89,15.17-2.66,2.5-1.77,3.75-4.91,3.75-9.42,0-4.88-1.34-8.31-4.02-10.31-2.68-1.99-7.64-2.99-14.9-2.99h-2.6v25.38Zm-.91,11.18v39.59h-13.48v-88.48h20.06c5.89,0,10.45,.38,13.69,1.15,3.24,.76,6.01,2.03,8.31,3.81,2.74,2.14,4.85,4.89,6.35,8.28,1.49,3.39,2.24,7.09,2.24,11.12,0,7.09-1.71,12.64-5.14,16.65-3.43,4.01-8.48,6.42-15.17,7.22l30.46,40.25h-16.25l-29.44-39.59h-1.63Z"/><rect class="cls-2" x="358.82" y="182.6" width="14.38" height="88.48"/><path class="cls-2" d="M418.76,274.52l-39.47-91.93h14.93l19.82,47.14c1.17,2.74,2.13,5.27,2.9,7.58,.77,2.32,1.37,4.52,1.81,6.62,.52-2.22,1.19-4.51,1.99-6.89,.81-2.37,1.75-4.81,2.84-7.31l19.76-47.14h14.87l-39.47,91.93Z"/><polygon class="cls-2" points="463.95 182.6 463.95 271.08 513.33 271.08 513.33 258.2 478.34 258.2 478.34 229.62 513.33 229.62 513.33 216.98 478.34 216.98 478.34 194.81 513.33 194.81 513.33 182.6 463.95 182.6"/></g><g><path class="cls-1" d="M91.51,324.68c0-4.09,1.14-7.12,3.41-9.08,1.9-1.63,4.21-2.45,6.94-2.45,3.04,0,5.52,.99,7.44,2.98,1.93,1.99,2.89,4.74,2.89,8.24,0,2.84-.43,5.08-1.28,6.7s-2.09,2.89-3.72,3.79c-1.63,.9-3.41,1.35-5.33,1.35-3.09,0-5.59-.99-7.5-2.98-1.9-1.98-2.86-4.83-2.86-8.56Zm3.85,0c0,2.83,.62,4.94,1.85,6.35,1.23,1.41,2.78,2.11,4.66,2.11s3.4-.71,4.64-2.12,1.85-3.57,1.85-6.47c0-2.73-.62-4.8-1.86-6.2s-2.78-2.11-4.62-2.11-3.42,.7-4.66,2.1c-1.23,1.4-1.85,3.51-1.85,6.34Z"/><path class="cls-1" d="M117.31,335.72v-30.48h3.74v30.48h-3.74Z"/><path class="cls-1" d="M135.83,332.37l.54,3.3c-1.05,.22-2,.33-2.83,.33-1.36,0-2.41-.21-3.16-.64s-1.28-.99-1.58-1.69-.46-2.17-.46-4.42v-12.7h-2.74v-2.91h2.74v-5.47l3.72-2.24v7.71h3.76v2.91h-3.76v12.91c0,1.07,.06,1.75,.2,2.06,.13,.3,.35,.55,.64,.72,.3,.18,.72,.27,1.28,.27,.42,0,.96-.05,1.64-.15Z"/><path class="cls-1" d="M140.3,335.72v-22.08h3.37v3.35c.86-1.56,1.65-2.6,2.38-3.1,.73-.5,1.53-.75,2.4-.75,1.26,0,2.54,.4,3.85,1.21l-1.29,3.47c-.92-.54-1.83-.81-2.74-.81-.82,0-1.55,.25-2.2,.74-.65,.49-1.12,1.17-1.39,2.05-.41,1.33-.62,2.78-.62,4.36v11.56h-3.74Z"/><path class="cls-1" d="M170.44,328.61l3.87,.48c-.61,2.26-1.74,4.01-3.39,5.26s-3.75,1.87-6.32,1.87c-3.23,0-5.79-.99-7.68-2.99-1.89-1.99-2.84-4.78-2.84-8.37s.96-6.6,2.87-8.65c1.91-2.05,4.39-3.08,7.44-3.08s5.36,1,7.23,3.01,2.81,4.84,2.81,8.48c0,.22,0,.55-.02,1h-16.46c.14,2.43,.82,4.28,2.06,5.57,1.23,1.29,2.77,1.94,4.62,1.94,1.37,0,2.54-.36,3.51-1.08s1.74-1.87,2.31-3.45Zm-12.29-6.05h12.33c-.17-1.86-.64-3.25-1.41-4.18-1.19-1.44-2.74-2.16-4.64-2.16-1.72,0-3.16,.58-4.33,1.73-1.17,1.15-1.82,2.69-1.94,4.61Z"/><path class="cls-1" d="M192.41,335.72v-30.48h3.74v30.48h-3.74Z"/><path class="cls-1" d="M217.17,333c-1.39,1.18-2.72,2.01-4,2.5-1.28,.48-2.66,.73-4.13,.73-2.43,0-4.29-.6-5.59-1.78-1.3-1.19-1.95-2.7-1.95-4.54,0-1.08,.25-2.07,.74-2.96,.49-.89,1.14-1.61,1.93-2.15,.8-.54,1.69-.95,2.69-1.23,.73-.19,1.84-.38,3.33-.56,3.02-.36,5.25-.79,6.67-1.29,.01-.51,.02-.84,.02-.98,0-1.53-.35-2.6-1.06-3.22-.96-.84-2.38-1.27-4.26-1.27-1.76,0-3.06,.31-3.9,.92-.84,.62-1.46,1.71-1.86,3.28l-3.66-.5c.33-1.56,.88-2.83,1.64-3.79,.76-.96,1.86-1.7,3.3-2.22,1.44-.52,3.11-.78,5.01-.78s3.42,.22,4.59,.67c1.18,.44,2.04,1,2.6,1.67,.55,.67,.94,1.52,1.16,2.55,.12,.64,.19,1.79,.19,3.45v4.99c0,3.48,.08,5.68,.24,6.6s.47,1.81,.95,2.65h-3.91c-.39-.78-.64-1.68-.75-2.72Zm-.31-8.36c-1.36,.55-3.4,1.03-6.11,1.41-1.54,.22-2.63,.47-3.26,.75-.64,.28-1.13,.68-1.48,1.21s-.52,1.13-.52,1.78c0,1,.38,1.83,1.13,2.49,.76,.67,1.86,1,3.32,1s2.72-.32,3.85-.95c1.12-.63,1.95-1.49,2.48-2.59,.4-.85,.6-2.09,.6-3.74v-1.37Z"/><path class="cls-1" d="M238.43,329.13l3.7-.58c.21,1.48,.79,2.62,1.74,3.41,.95,.79,2.28,1.19,3.98,1.19s2.99-.35,3.82-1.05,1.25-1.52,1.25-2.46c0-.84-.37-1.51-1.1-2-.51-.33-1.79-.76-3.82-1.27-2.74-.69-4.65-1.29-5.71-1.8-1.06-.5-1.86-1.2-2.41-2.1-.55-.9-.82-1.88-.82-2.97,0-.98,.23-1.89,.68-2.73,.45-.84,1.06-1.54,1.84-2.09,.58-.43,1.38-.79,2.38-1.09s2.08-.45,3.23-.45c1.73,0,3.25,.25,4.56,.75,1.31,.5,2.28,1.18,2.9,2.03,.62,.85,1.05,1.99,1.29,3.42l-3.66,.5c-.17-1.13-.65-2.02-1.45-2.66s-1.92-.96-3.38-.96c-1.72,0-2.94,.28-3.68,.85-.73,.57-1.1,1.23-1.1,2,0,.48,.15,.92,.46,1.31,.3,.4,.78,.74,1.44,1,.37,.14,1.48,.46,3.3,.96,2.65,.71,4.49,1.28,5.54,1.74,1.05,.45,1.87,1.11,2.46,1.96s.89,1.93,.89,3.2-.36,2.42-1.09,3.53c-.73,1.1-1.78,1.95-3.15,2.56s-2.93,.91-4.66,.91c-2.87,0-5.06-.6-6.56-1.79-1.5-1.19-2.46-2.96-2.88-5.3Z"/><path class="cls-1" d="M260.67,324.68c0-4.09,1.14-7.12,3.41-9.08,1.9-1.63,4.21-2.45,6.94-2.45,3.04,0,5.52,.99,7.44,2.98,1.93,1.99,2.89,4.74,2.89,8.24,0,2.84-.43,5.08-1.28,6.7s-2.09,2.89-3.72,3.79c-1.63,.9-3.41,1.35-5.33,1.35-3.09,0-5.59-.99-7.5-2.98-1.9-1.98-2.86-4.83-2.86-8.56Zm3.85,0c0,2.83,.62,4.94,1.85,6.35,1.23,1.41,2.78,2.11,4.66,2.11s3.4-.71,4.64-2.12,1.85-3.57,1.85-6.47c0-2.73-.62-4.8-1.86-6.2s-2.78-2.11-4.62-2.11-3.42,.7-4.66,2.1c-1.23,1.4-1.85,3.51-1.85,6.34Z"/><path class="cls-1" d="M286.47,335.72v-30.48h3.74v30.48h-3.74Z"/><path class="cls-1" d="M311.29,335.72v-3.24c-1.72,2.49-4.05,3.74-7.01,3.74-1.3,0-2.52-.25-3.65-.75-1.13-.5-1.97-1.13-2.52-1.88-.55-.75-.93-1.68-1.15-2.77-.15-.74-.23-1.9-.23-3.49v-13.68h3.74v12.24c0,1.96,.08,3.27,.23,3.95,.24,.98,.74,1.75,1.5,2.32,.76,.56,1.7,.84,2.83,.84s2.18-.29,3.16-.86c.98-.58,1.68-1.36,2.09-2.35,.41-.99,.61-2.43,.61-4.31v-11.83h3.74v22.08h-3.35Z"/><path class="cls-1" d="M319.33,335.72v-3.04l14.05-16.13c-1.59,.08-3,.13-4.22,.13h-9v-3.04h18.04v2.48l-11.95,14.01-2.31,2.56c1.68-.13,3.25-.19,4.72-.19h10.21v3.22h-19.54Z"/><path class="cls-1" d="M343.47,309.55v-4.3h3.74v4.3h-3.74Zm0,26.17v-22.08h3.74v22.08h-3.74Z"/><path class="cls-1" d="M352.32,324.68c0-4.09,1.14-7.12,3.41-9.08,1.9-1.63,4.21-2.45,6.94-2.45,3.04,0,5.52,.99,7.44,2.98,1.93,1.99,2.89,4.74,2.89,8.24,0,2.84-.43,5.08-1.28,6.7s-2.09,2.89-3.72,3.79c-1.63,.9-3.41,1.35-5.33,1.35-3.09,0-5.59-.99-7.5-2.98-1.9-1.98-2.86-4.83-2.86-8.56Zm3.85,0c0,2.83,.62,4.94,1.85,6.35,1.23,1.41,2.78,2.11,4.66,2.11s3.4-.71,4.64-2.12,1.85-3.57,1.85-6.47c0-2.73-.62-4.8-1.86-6.2s-2.78-2.11-4.62-2.11-3.42,.7-4.66,2.1c-1.23,1.4-1.85,3.51-1.85,6.34Z"/><path class="cls-1" d="M378.2,335.72v-22.08h3.37v3.14c1.62-2.43,3.96-3.64,7.03-3.64,1.33,0,2.55,.24,3.67,.72,1.12,.48,1.95,1.11,2.5,1.88,.55,.77,.94,1.7,1.16,2.76,.14,.69,.21,1.91,.21,3.64v13.57h-3.74v-13.43c0-1.52-.15-2.66-.44-3.42-.29-.75-.81-1.36-1.55-1.81-.74-.45-1.61-.68-2.61-.68-1.59,0-2.97,.5-4.13,1.52-1.16,1.01-1.74,2.93-1.74,5.76v12.06h-3.74Z"/><path class="cls-1" d="M417.8,328.61l3.87,.48c-.61,2.26-1.74,4.01-3.39,5.26s-3.75,1.87-6.32,1.87c-3.23,0-5.79-.99-7.68-2.99-1.89-1.99-2.84-4.78-2.84-8.37s.96-6.6,2.87-8.65c1.91-2.05,4.39-3.08,7.44-3.08s5.36,1,7.23,3.01,2.81,4.84,2.81,8.48c0,.22,0,.55-.02,1h-16.46c.14,2.43,.82,4.28,2.06,5.57,1.23,1.29,2.77,1.94,4.62,1.94,1.37,0,2.54-.36,3.51-1.08s1.74-1.87,2.31-3.45Zm-12.29-6.05h12.33c-.17-1.86-.64-3.25-1.41-4.18-1.19-1.44-2.74-2.16-4.64-2.16-1.72,0-3.16,.58-4.33,1.73-1.17,1.15-1.82,2.69-1.94,4.61Z"/></g></g></g></svg>